<?xml version="1.0" standalone="no"?>
<!DOCTYPE svg PUBLIC "-//W3C//DTD SVG 1.1//EN" "http://www.w3.org/Graphics/SVG/1.1/DTD/svg11.dtd" >
<svg xmlns="http://www.w3.org/2000/svg">
<metadata>
This is a custom SVG webfont generated by Font Squirrel.
Copyright   : c Dalton Maag Ltd 2001 and BMW Group This font is for exclusive use for projects relating to Mini only
</metadata>
<defs>
<font id="MINITypev2BoldRegular" horiz-adv-x="1257" vert-adv-y="2048" >
<font-face units-per-em="2048" ascent="1638" descent="-410" />
<missing-glyph horiz-adv-x="512" />
<glyph unicode=" " horiz-adv-x="512" vert-adv-y="0" />
<glyph unicode="!" horiz-adv-x="647" vert-adv-y="1433" d="M106 186q0 103 78 168q59 50 142 50q102 0 167 -80q48 -58 48 -140q0 -103 -80 -167q-59 -48 -138 -48q-80 0 -141 52q-76 65 -76 165zM129 1267q0 107 67 167q53 47 130 47q95 0 152 -77q42 -57 42 -146q0 -54 -12 -162l-62 -561h-245l-58 561q-14 136 -14 171z" />
<glyph unicode="&#x22;" horiz-adv-x="1128" vert-adv-y="1433" d="M117 1393q0 98 60 151q50 43 130 43q97 0 149 -69q38 -51 38 -130q0 -54 -19 -167l-72 -428h-196l-72 428q-18 107 -18 172zM635 1392q0 98 62 152q49 43 129 43q96 0 148 -69q38 -51 38 -130q0 -53 -19 -167l-71 -428h-197l-72 428q-18 107 -18 171z" />
<glyph unicode="#" horiz-adv-x="1599" vert-adv-y="1433" d="M61 279l60 245h225l96 396h-225l59 245h226l67 279h262l-67 -279h289l67 279h262l-67 -279h223l-59 -245h-224l-96 -396h223l-59 -245h-223l-68 -279h-262l68 279h-289l-68 -279h-262l68 279h-226zM608 524h289l96 396h-288z" />
<glyph unicode="$" horiz-adv-x="1079" vert-adv-y="1433" d="M61 1015q0 169 103 279q94 101 256 129v164h229v-153q141 -11 291 -41v-263q-208 54 -348 54t-196 -52q-34 -32 -34 -98q0 -57 49 -93q26 -19 113 -54l156 -64q151 -62 221 -135q109 -114 109 -288q0 -228 -165 -339q-80 -53 -196 -77v-179h-229v164q-160 7 -336 56v276 q208 -74 365 -74q247 0 247 160q0 79 -65 125q-19 14 -105 51l-186 76q-100 41 -164 102q-115 110 -115 274z" />
<glyph unicode="%" horiz-adv-x="2277" vert-adv-y="1433" d="M96 977q0 215 109 338t303 123q219 0 329 -152q85 -116 85 -314q0 -211 -109 -334q-111 -124 -307 -124q-173 0 -280 101q-130 124 -130 362zM346 977q0 -125 39 -192q42 -72 122 -72q165 0 165 270q0 138 -55 207q-38 49 -111 49q-79 0 -121 -72q-39 -66 -39 -190z M602 0l799 1407h270l-799 -1407h-270zM1356 432q0 217 108 338q111 123 304 123q219 0 328 -151q85 -117 85 -315q0 -211 -109 -334q-110 -124 -307 -124q-172 0 -279 101q-130 123 -130 362zM1606 432q0 -125 39 -192q42 -72 120 -72q166 0 166 270q0 138 -55 207 q-38 49 -110 49q-79 0 -121 -72q-39 -66 -39 -190z" />
<glyph unicode="&#x26;" horiz-adv-x="1520" vert-adv-y="1433" d="M61 456q0 289 297 449q-63 115 -63 210q0 162 105 257q121 109 346 109q153 0 327 -64v-248q-43 21 -113 42q-92 28 -168 28q-85 0 -133 -31q-55 -36 -55 -104q0 -50 34 -103q24 -38 118 -145l288 -326q61 153 86 375h279q-16 -338 -168 -594l279 -311h-385l-86 96 q-181 -133 -436 -133t-400 127q-152 134 -152 366zM360 466q0 -111 68 -175q80 -76 211 -76q136 0 233 78l-368 416q-144 -99 -144 -243z" />
<glyph unicode="'" horiz-adv-x="598" vert-adv-y="1433" d="M111 1393q0 98 61 151q49 43 130 43q95 0 146 -68q39 -52 39 -131q0 -60 -18 -167l-72 -428h-196l-72 428q-18 107 -18 172z" />
<glyph unicode="(" horiz-adv-x="709" vert-adv-y="1433" d="M90 650q0 526 275 784q122 115 299 153v-287q-109 -60 -168 -177q-86 -171 -86 -472q0 -318 94 -489q55 -101 160 -162v-287q-213 43 -358 216q-216 258 -216 721z" />
<glyph unicode=")" horiz-adv-x="709" vert-adv-y="1433" d="M45 0q118 68 177 194q77 166 77 466q0 235 -59 399q-59 166 -195 241v287q238 -51 388 -256q185 -254 185 -685q0 -522 -277 -780q-122 -115 -296 -153v287z" />
<glyph unicode="*" horiz-adv-x="1044" vert-adv-y="1433" d="M72 1024l65 215l277 -94v299h215v-299l276 94l68 -215l-275 -92l168 -240l-176 -135l-170 242l-168 -242l-176 135l168 240z" />
<glyph unicode="+" vert-adv-y="1433" d="M125 571v263h364v409h279v-409h365v-263h-365v-409h-279v409h-364z" />
<glyph unicode="," horiz-adv-x="598" vert-adv-y="1433" d="M100 169q0 93 72 152q55 46 129 46q92 0 150 -70q47 -56 47 -133q0 -78 -58 -191l-145 -282h-195l148 297q-57 8 -97 51q-51 54 -51 130z" />
<glyph unicode="-" horiz-adv-x="877" vert-adv-y="1433" d="M61 485v299h754v-299h-754z" />
<glyph unicode="." horiz-adv-x="598" vert-adv-y="1433" d="M100 168q0 93 72 153q54 46 129 46q92 0 150 -70q47 -56 47 -132q0 -92 -72 -151q-54 -45 -127 -45q-74 0 -130 48q-69 59 -69 151z" />
<glyph unicode="/" horiz-adv-x="674" vert-adv-y="1433" d="M-12 -256l383 1812h291l-383 -1812h-291z" />
<glyph unicode="0" vert-adv-y="1433" d="M53 705q0 346 140 533q148 200 436 200q289 0 437 -199q138 -186 138 -534q0 -350 -138 -537q-148 -199 -439 -199q-259 0 -405 164q-169 189 -169 572zM377 698q0 -460 250 -460q109 0 169 75q85 106 85 398q0 234 -60 345q-61 113 -191 113q-131 0 -192 -113 q-61 -114 -61 -358z" />
<glyph unicode="1" vert-adv-y="1433" d="M217 1026v244l388 137h256v-1407h-314v1102z" />
<glyph unicode="2" vert-adv-y="1433" d="M117 0v219q266 209 417 361q106 108 157 186q67 103 67 199q0 115 -89 167q-60 35 -168 35q-133 0 -326 -84v275q192 80 406 80q238 0 370 -111q133 -111 133 -311q0 -221 -178 -432q-93 -111 -307 -310h514v-274h-996z" />
<glyph unicode="3" vert-adv-y="1433" d="M130 4v272q150 -38 330 -38q340 0 340 198q0 189 -316 189q-83 0 -168 -11v205l346 324h-530v264h924v-225l-359 -344q194 -12 296 -98q128 -107 128 -308q0 -214 -164 -338q-165 -125 -454 -125q-209 0 -373 35z" />
<glyph unicode="4" vert-adv-y="1433" d="M68 233v281l639 893h307v-928h153v-246h-153v-233h-299v233h-647zM330 479h385v539z" />
<glyph unicode="5" vert-adv-y="1433" d="M140 0v276q163 -38 316 -38q352 0 352 221q0 209 -323 209q-134 0 -312 -35l33 774h845v-268h-569l-8 -217q42 4 123 4q259 0 389 -107q145 -120 145 -353q0 -251 -194 -382q-169 -115 -459 -115q-146 0 -338 31z" />
<glyph unicode="6" vert-adv-y="1433" d="M91 603q0 346 156 565q193 270 595 270q97 0 216 -17v-243q-79 6 -139 6q-245 0 -357 -108q-75 -71 -114 -218q106 94 285 94q140 0 248 -62q196 -114 196 -410q0 -249 -141 -380t-403 -131q-227 0 -364 127q-178 165 -178 507zM413 462q0 -116 59 -177q57 -60 165 -60 q224 0 224 252q0 112 -59 168q-59 55 -160 55q-102 0 -166 -65q-13 -14 -33.5 -42.5t-21.5 -35.5q-8 -55 -8 -95z" />
<glyph unicode="7" vert-adv-y="1433" d="M130 1128v279h1024v-240l-594 -1167h-340l583 1128h-673z" />
<glyph unicode="8" vert-adv-y="1433" d="M68 409q0 138 73 235q41 54 119 104q-158 111 -158 297q0 181 145 288q142 105 380 105q241 0 383 -105q145 -107 145 -288q0 -186 -158 -297q86 -55 129 -118q64 -93 64 -222q0 -206 -155 -324q-149 -115 -408 -115q-230 0 -375 94q-184 119 -184 346zM389 421 q0 -101 72 -154q58 -44 164 -44q116 0 182 54q61 50 61 149q0 95 -69 144q-60 44 -175 44q-135 0 -195 -70q-40 -47 -40 -123zM414 1023q0 -72 48 -112q55 -47 162 -47q220 0 220 162q0 78 -59 120q-57 40 -162 40q-123 0 -177 -62q-32 -35 -32 -101z" />
<glyph unicode="9" vert-adv-y="1433" d="M81 915q0 261 140 391q141 132 397 132q259 0 399 -157q149 -167 149 -476q0 -347 -156 -566q-193 -270 -595 -270q-100 0 -215 17v243q78 -6 138 -6q245 0 358 108q75 71 114 218q-105 -94 -283 -94q-196 0 -312 108q-134 123 -134 352zM396 934q0 -227 219 -227 q81 0 137 40q36 26 66 70q18 27 19 33q8 55 8 95q0 237 -225 237q-224 0 -224 -248z" />
<glyph unicode=":" horiz-adv-x="598" vert-adv-y="1433" d="M100 168q0 93 72 153q54 46 129 46q92 0 150 -70q47 -56 47 -132q0 -92 -72 -151q-54 -45 -127 -45q-74 0 -130 48q-69 59 -69 151zM100 866q0 94 72 154q54 45 128 45q92 0 150 -70q47 -56 47 -131q0 -80 -58 -138t-143 -58q-72 0 -127 48q-69 59 -69 150z" />
<glyph unicode=";" horiz-adv-x="598" vert-adv-y="1433" d="M100 169q0 93 72 152q55 46 129 46q92 0 150 -70q47 -56 47 -133q0 -78 -58 -191l-145 -282h-195l148 297q-57 8 -97 51q-51 54 -51 130zM100 866q0 94 72 154q54 45 128 45q92 0 150 -70q47 -56 47 -131q0 -80 -58 -138t-143 -58q-72 0 -127 48q-69 59 -69 150z" />
<glyph unicode="&#x3c;" vert-adv-y="1433" d="M125 575v254l1008 414v-274l-658 -267l658 -266v-274z" />
<glyph unicode="=" vert-adv-y="1433" d="M125 340v262h1008v-262h-1008zM125 803v262h1008v-262h-1008z" />
<glyph unicode="&#x3e;" vert-adv-y="1433" d="M125 162v274l657 266l-657 267v274l1008 -414v-254z" />
<glyph unicode="?" horiz-adv-x="979" vert-adv-y="1433" d="M43 1141v270q168 70 391 70q249 0 373 -131q90 -95 90 -232q0 -183 -162 -323q-75 -65 -107 -110q-44 -62 -44 -138v-21h-297v43q0 203 174 342q75 59 91 82q30 43 30 94q0 140 -211 140q-151 0 -328 -86zM219 182q0 102 79 167q57 48 140 48q101 0 165 -78 q50 -59 50 -142q0 -103 -80 -167q-59 -47 -139 -47q-87 0 -152 62q-63 61 -63 157z" />
<glyph unicode="@" horiz-adv-x="1745" vert-adv-y="1433" d="M90 698q0 218 114 405q124 204 326 300q164 78 347 78q207 0 390 -107q178 -104 281 -281q107 -183 107 -395q0 -158 -64 -315h-569l-12 115h-299l-64 -115h-211l436 750h254l82 -566h199q14 64 14 132q0 236 -161 404q-162 167 -388 167t-386 -167q-162 -169 -162 -405 q0 -238 163 -403q166 -168 415 -168q160 0 261 27v-211q-120 -27 -285 -27q-306 0 -530 201q-121 109 -188 258q-70 153 -70 323zM793 643h200l-32 299z" />
<glyph unicode="A" horiz-adv-x="1391" vert-adv-y="1433" d="M0 0l522 1444h348l521 -1444h-344l-84 256h-551l-86 -256h-326zM498 516h379l-189 571z" />
<glyph unicode="B" horiz-adv-x="1327" vert-adv-y="1433" d="M174 0v1444h535q238 0 362 -123q98 -97 98 -256q0 -194 -137 -297q109 -55 157 -136q46 -78 46 -209q0 -200 -128 -309q-134 -114 -390 -114h-543zM496 262h209q200 0 200 174q0 170 -200 170h-209v-344zM496 870h180q85 0 129 48q37 40 37 110q0 84 -56 124 q-42 30 -110 30h-180v-312z" />
<glyph unicode="C" horiz-adv-x="1208" vert-adv-y="1433" d="M72 719q0 354 202 557q197 199 540 199q141 0 319 -37v-273q-137 39 -274 39q-218 0 -332 -128q-108 -122 -108 -356q0 -233 124 -361q115 -117 321 -117q148 0 286 37v-279q-148 -31 -324 -31q-315 0 -508 158q-246 200 -246 592z" />
<glyph unicode="D" horiz-adv-x="1473" vert-adv-y="1433" d="M174 0v1444h502q337 0 520 -187q186 -189 186 -534q0 -347 -186 -536q-183 -187 -520 -187h-502zM510 272h160q366 0 366 455q0 212 -95 329q-93 115 -271 115h-160v-899z" />
<glyph unicode="E" horiz-adv-x="1178" vert-adv-y="1433" d="M174 0v1444h870v-277h-534v-293h510v-276h-510v-322h555v-276h-891z" />
<glyph unicode="F" horiz-adv-x="1122" vert-adv-y="1433" d="M174 0v1444h887v-281h-563v-305h540v-280h-538v-578h-326z" />
<glyph unicode="G" horiz-adv-x="1434" vert-adv-y="1433" d="M90 719q0 355 233 565q220 197 575 197q145 0 347 -33v-268q-170 30 -304 30q-308 0 -430 -192q-75 -120 -75 -302q0 -235 118 -362q115 -125 335 -125q50 0 82 4v297h-211v277h536v-823q-203 -21 -429 -21q-345 0 -549 182q-228 204 -228 574z" />
<glyph unicode="H" horiz-adv-x="1534" vert-adv-y="1433" d="M174 0v1444h336v-531h514v531h336v-1444h-336v635h-514v-635h-336z" />
<glyph unicode="I" horiz-adv-x="684" vert-adv-y="1433" d="M174 0v1444h336v-1444h-336z" />
<glyph unicode="J" horiz-adv-x="969" vert-adv-y="1433" d="M-20 0v272q113 -26 219 -26q150 0 217 63q59 55 59 201v934h336v-934q0 -245 -108 -374q-137 -161 -446 -161q-150 0 -277 25z" />
<glyph unicode="K" horiz-adv-x="1427" vert-adv-y="1433" d="M174 0v1444h336v-539l455 539h397l-584 -678l649 -766h-423l-494 594v-594h-336z" />
<glyph unicode="L" horiz-adv-x="1108" vert-adv-y="1433" d="M174 0v1444h336v-1168h573v-276h-909z" />
<glyph unicode="M" horiz-adv-x="1802" vert-adv-y="1433" d="M174 0v1444h391l340 -1067l336 1067h387v-1444h-319v883l-277 -883h-260l-276 883v-883h-322z" />
<glyph unicode="N" horiz-adv-x="1491" vert-adv-y="1433" d="M174 0v1444h326l493 -907v907h324v-1444h-313l-506 924v-924h-324z" />
<glyph unicode="O" horiz-adv-x="1556" vert-adv-y="1433" d="M90 725q0 355 186 556q184 200 500 200q317 0 503 -200q187 -202 187 -556q0 -356 -187 -560q-185 -202 -505 -202q-281 0 -461 165q-223 204 -223 597zM436 725q0 -229 83 -357q89 -139 255 -139q163 0 254 125q92 126 92 378q0 256 -112 386q-42 48 -111 74 q-59 22 -124 22q-165 0 -254 -136q-83 -126 -83 -353z" />
<glyph unicode="P" horiz-adv-x="1260" vert-adv-y="1433" d="M174 0v1444h479q272 0 414 -135q131 -123 131 -338q0 -217 -131 -340q-141 -135 -414 -135h-153v-496h-326zM500 764h147q132 0 184 75q33 47 33 136q0 201 -217 201h-147v-412z" />
<glyph unicode="Q" horiz-adv-x="1556" vert-adv-y="1433" d="M90 725q0 355 186 556q184 200 500 200q318 0 503 -200q187 -202 187 -557q0 -411 -254 -622l344 -319h-436l-207 190q-70 -10 -135 -10q-318 0 -502 202q-186 203 -186 560zM436 725q0 -229 83 -357q89 -139 255 -139q163 0 254 125q92 126 92 378q0 256 -112 386 q-42 48 -111 74q-59 22 -124 22q-165 0 -254 -136q-83 -126 -83 -353z" />
<glyph unicode="R" horiz-adv-x="1372" vert-adv-y="1433" d="M174 0v1444h502q297 0 426 -166q88 -114 88 -306q0 -236 -176 -372l336 -600h-385l-258 508h-207v-508h-326zM500 776h155q201 0 201 205q0 195 -201 195h-155v-400z" />
<glyph unicode="S" horiz-adv-x="1098" vert-adv-y="1433" d="M61 1050q0 219 178 337q141 94 372 94q137 0 352 -43v-254q-197 43 -325 43q-267 0 -267 -156q0 -91 151 -156l170 -73q151 -65 223 -137q113 -113 113 -298q0 -191 -119 -305q-145 -139 -452 -139q-186 0 -375 53v271q195 -64 343 -64q176 0 241 70q39 42 39 100 q0 67 -45 109q-34 33 -109 65l-199 86q-291 126 -291 397z" />
<glyph unicode="T" horiz-adv-x="1139" vert-adv-y="1433" d="M18 1167v277h1102v-277h-383v-1167h-336v1167h-383z" />
<glyph unicode="U" horiz-adv-x="1499" vert-adv-y="1433" d="M158 537v907h336v-918q0 -141 54 -207q62 -75 200 -75q154 0 215 92q43 63 43 190v918h335v-907q0 -281 -149 -427q-150 -147 -443 -147q-245 0 -387 101q-204 145 -204 473z" />
<glyph unicode="V" horiz-adv-x="1358" vert-adv-y="1433" d="M0 1444h340l342 -1051l346 1051h330l-512 -1444h-336z" />
<glyph unicode="W" horiz-adv-x="1839" vert-adv-y="1433" d="M0 1444h336l221 -1022l213 1022h307l211 -1022l225 1022h326l-371 -1444h-342l-206 946l-209 -946h-342z" />
<glyph unicode="X" horiz-adv-x="1358" vert-adv-y="1433" d="M0 0l496 752l-443 692h371l262 -418l268 418h357l-447 -682l494 -762h-381l-303 485l-309 -485h-365z" />
<glyph unicode="Y" horiz-adv-x="1374" vert-adv-y="1433" d="M0 1444h362l330 -619l330 619h352l-518 -920v-524h-336v524z" />
<glyph unicode="Z" horiz-adv-x="1214" vert-adv-y="1433" d="M51 0v225l688 942h-643v277h1045v-225l-684 -943h702v-276h-1108z" />
<glyph unicode="[" horiz-adv-x="676" vert-adv-y="1433" d="M174 -256v1812h459v-241h-187v-1329h187v-242h-459z" />
<glyph unicode="\" horiz-adv-x="674" vert-adv-y="1433" d="M12 1556h291l383 -1812h-291z" />
<glyph unicode="]" horiz-adv-x="676" vert-adv-y="1433" d="M43 -14h186v1329h-186v241h459v-1812h-459v242z" />
<glyph unicode="^" horiz-adv-x="1217" vert-adv-y="1433" d="M123 367l371 753h229l371 -753h-267l-227 477l-227 -477h-250z" />
<glyph unicode="_" horiz-adv-x="1024" vert-adv-y="1433" d="M0 -217h1024v-137h-1024v137z" />
<glyph unicode="`" horiz-adv-x="1024" vert-adv-y="1433" d="M95 1520h403l289 -283h-309z" />
<glyph unicode="a" horiz-adv-x="1182" vert-adv-y="1433" d="M68 340q0 174 119 263q108 79 311 79q116 0 245 -35v33q0 75 -41 117q-57 59 -228 59q-154 0 -318 -65v243q179 62 392 62q329 0 440 -165q61 -92 61 -265v-666h-244l-29 84q-80 -52 -130 -70q-83 -30 -189 -30q-164 0 -265 76q-124 94 -124 280zM375 336q0 -59 38 -94 q43 -39 130 -39q119 0 200 59v193q-97 26 -179 26q-189 0 -189 -145z" />
<glyph unicode="b" vert-adv-y="1433" d="M133 0v1556h309v-559q100 99 277 99q206 0 328 -139q129 -149 129 -413q0 -263 -127 -416q-123 -148 -328 -148q-152 0 -299 120l-41 -100h-248zM442 379q75 -121 213 -121q82 0 135 57q66 73 66 234q0 272 -213 272q-120 0 -201 -127v-315z" />
<glyph unicode="c" horiz-adv-x="1014" vert-adv-y="1433" d="M62 533q0 260 150 407q153 150 438 150q138 0 272 -33v-269q-121 31 -229 31q-152 0 -232 -73t-80 -214q0 -147 96 -222q83 -64 234 -64q111 0 227 22v-272q-125 -21 -272 -21q-263 0 -419 124q-185 147 -185 434z" />
<glyph unicode="d" vert-adv-y="1433" d="M82 545q0 264 129 412q122 139 328 139q177 0 276 -99v559h309v-1556h-247l-41 100q-148 -120 -300 -120q-183 0 -302 121q-152 153 -152 444zM401 541q0 -142 62 -219q51 -64 141 -64q136 0 211 121v315q-76 127 -203 127q-211 0 -211 -280z" />
<glyph unicode="e" horiz-adv-x="1190" vert-adv-y="1433" d="M82 535q0 253 141 406q143 155 388 155q179 0 305 -84q116 -78 161 -206q41 -115 41 -233v-29v-30q0 -41 -2 -76h-715q21 -80 77 -130q88 -79 292 -79q131 0 274 19v-258q-163 -21 -334 -21q-263 0 -425 124q-203 154 -203 442zM399 639h416q-20 227 -205 227 q-111 0 -168 -97q-30 -51 -43 -130z" />
<glyph unicode="f" horiz-adv-x="752" vert-adv-y="1433" d="M6 821v176l178 68v80q0 214 106 328q105 114 318 114q114 0 246 -20v-242q-115 10 -166 10q-196 0 -196 -186v-84h247v-244h-245v-821h-310v821h-178z" />
<glyph unicode="g" horiz-adv-x="1274" vert-adv-y="1433" d="M92 592q0 234 140 369q139 135 378 135q90 0 189 -31h393v-231h-148q89 -99 89 -250q0 -239 -195 -359q207 -99 207 -302q0 -195 -182 -290q-141 -73 -368 -73q-150 0 -254 13q-83 11 -202 38v272q138 -40 173 -47q110 -22 247 -22q176 0 236 53q30 26 30 83 q0 95 -153 123q-170 30 -227 48q-353 107 -353 471zM403 593q0 -145 67 -213q51 -52 139 -52q100 0 156 68q56 67 56 203q0 137 -66 205q-54 54 -148 54q-100 0 -153 -72q-51 -68 -51 -193z" />
<glyph unicode="h" horiz-adv-x="1247" vert-adv-y="1433" d="M133 0v1556h309v-583q148 123 317 123q174 0 268 -105q87 -96 87 -264v-727h-311v662q0 155 -149 155q-123 0 -212 -145v-672h-309z" />
<glyph unicode="i" horiz-adv-x="594" vert-adv-y="1433" d="M119 1378q0 85 66 139q47 39 114 39q83 0 136 -66q40 -49 40 -115q0 -84 -66 -136q-48 -39 -112 -39q-66 0 -116 43q-62 53 -62 135zM141 0v1065h310v-1065h-310z" />
<glyph unicode="j" horiz-adv-x="586" vert-adv-y="1433" d="M-199 -164q83 -14 141 -14q110 0 156 58q35 45 35 151v1034h309v-1065q0 -440 -455 -440q-95 0 -186 18v258zM111 1378q0 85 66 139q48 39 114 39q83 0 136 -66q40 -49 40 -114q0 -84 -66 -137q-48 -39 -112 -39q-66 0 -116 43q-62 53 -62 135z" />
<glyph unicode="k" horiz-adv-x="1243" vert-adv-y="1433" d="M133 0v1556h309v-892l396 401h372l-462 -453l495 -612h-385l-416 539v-539h-309z" />
<glyph unicode="l" horiz-adv-x="575" vert-adv-y="1433" d="M133 0v1556h309v-1556h-309z" />
<glyph unicode="m" horiz-adv-x="1878" vert-adv-y="1433" d="M133 0v1065h248l41 -111q131 142 326 142q200 0 292 -150q145 150 352 150q177 0 270 -107q83 -95 83 -262v-727h-309v662q0 155 -143 155q-78 0 -134 -57q-32 -33 -65 -88v-672h-310v662q0 155 -142 155q-79 0 -135 -57q-33 -34 -65 -88v-672h-309z" />
<glyph unicode="n" horiz-adv-x="1247" vert-adv-y="1433" d="M133 0v1065h248l41 -111q155 142 339 142q172 0 266 -105q87 -96 87 -264v-727h-311v662q0 155 -149 155q-123 0 -212 -145v-672h-309z" />
<glyph unicode="o" horiz-adv-x="1249" vert-adv-y="1433" d="M82 535q0 255 146 407q147 154 395 154q250 0 398 -152q146 -151 146 -409t-146 -411q-148 -155 -400 -155q-221 0 -365 128q-174 156 -174 438zM401 534q0 -146 59 -221q57 -73 161 -73q227 0 227 293q0 292 -225 292q-222 0 -222 -291z" />
<glyph unicode="p" vert-adv-y="1433" d="M133 -410v1475h248l41 -98q141 120 301 120q147 0 258 -83q195 -147 195 -489q0 -255 -129 -405q-121 -139 -328 -139q-177 0 -277 99v-480h-309zM442 373q81 -127 204 -127q210 0 210 281q0 163 -79 238q-47 44 -129 44q-131 0 -206 -121v-315z" />
<glyph unicode="q" vert-adv-y="1433" d="M82 522q0 264 127 417q123 148 327 148q155 0 300 -120l41 98h247v-1475h-309v480q-99 -99 -276 -99q-206 0 -328 139q-129 148 -129 412zM401 519q0 -273 213 -273q125 0 201 127v315q-75 121 -209 121q-205 0 -205 -290z" />
<glyph unicode="r" horiz-adv-x="791" vert-adv-y="1433" d="M133 0v1065h246l45 -156q48 65 100 103q81 59 193 59q41 0 74 -6v-274q-24 4 -71 4q-142 0 -223 -84q-24 -26 -55 -76v-635h-309z" />
<glyph unicode="s" horiz-adv-x="973" vert-adv-y="1433" d="M57 762q0 182 159 271q113 63 305 63q169 0 345 -45v-246q-186 51 -326 51q-169 0 -169 -86q0 -35 36 -57q31 -20 95 -39l125 -37q156 -46 215 -111q78 -86 78 -213q0 -175 -143 -268q-127 -82 -332 -82t-367 57v252q158 -65 322 -65q102 0 151 21q47 21 47 72 q0 41 -32 63q-29 19 -91 38l-117 35q-140 42 -202 93q-99 82 -99 233z" />
<glyph unicode="t" horiz-adv-x="795" vert-adv-y="1433" d="M6 821v176l178 68v330h310v-330h280v-244h-280v-461q0 -139 147 -139q38 0 154 6v-245q-129 -11 -234 -11q-377 0 -377 389v461h-178z" />
<glyph unicode="u" horiz-adv-x="1247" vert-adv-y="1433" d="M133 338v727h311v-662q0 -155 150 -155q123 0 211 145v672h309v-1065h-248l-41 111q-149 -142 -339 -142q-134 0 -224 67q-129 97 -129 302z" />
<glyph unicode="v" horiz-adv-x="1149" vert-adv-y="1433" d="M0 1065h332l250 -700l247 700h320l-428 -1079h-293z" />
<glyph unicode="w" horiz-adv-x="1655" vert-adv-y="1433" d="M0 1065h322l188 -727l178 727h291l180 -727l187 727h309l-340 -1079h-311l-177 686l-176 -686h-311z" />
<glyph unicode="x" horiz-adv-x="1180" vert-adv-y="1433" d="M0 0l401 545l-372 520h358l207 -291l209 291h350l-373 -514l400 -551h-367l-227 319l-230 -319h-356z" />
<glyph unicode="y" horiz-adv-x="1145" vert-adv-y="1433" d="M0 1065h326l256 -623l254 623h309l-643 -1473h-309l221 523z" />
<glyph unicode="z" horiz-adv-x="1065" vert-adv-y="1433" d="M49 0v233l545 576h-514v256h907v-234l-526 -575h551v-256h-963z" />
<glyph unicode="{" horiz-adv-x="707" vert-adv-y="1433" d="M43 449v253q68 0 94 11q38 15 51 83q15 79 15 294v159q0 153 85 233q76 74 210 74h166v-241h-101q-50 0 -71 -27q-23 -28 -23 -102v-428q0 -139 -100 -185q100 -47 100 -184v-428q0 -74 23 -102q21 -27 71 -27h101v-242h-166q-120 0 -194 60q-101 81 -101 248v421 q0 68 -22 94q-30 35 -138 36z" />
<glyph unicode="|" horiz-adv-x="645" vert-adv-y="1433" d="M186 -410v1966h273v-1966h-273z" />
<glyph unicode="}" horiz-adv-x="707" vert-adv-y="1433" d="M43 -168h100q50 0 72 27q23 28 23 102v428q0 138 100 184q-100 42 -100 185v428q0 74 -23 102q-22 27 -72 27h-100v241h166q151 0 228 -92q67 -80 67 -215v-159q0 -237 17 -306q15 -61 52 -72q31 -9 91 -10v-253q-99 -1 -133 -30q-27 -23 -27 -100v-421q0 -173 -107 -254 q-72 -54 -188 -54h-166v242z" />
<glyph unicode="~" vert-adv-y="1433" d="M82 565q1 109 26 185q32 100 111 150q66 42 148 42q71 0 155 -28q54 -19 165 -77q137 -73 179 -73q79 0 89 154h221q-2 -146 -44 -232q-40 -82 -126 -122q-51 -23 -118 -23q-102 0 -200 47q-106 51 -175 88q-79 43 -115 43q-84 0 -94 -154h-222z" />
<glyph unicode="&#xa0;" horiz-adv-x="512" vert-adv-y="1433" />
<glyph unicode="&#xa1;" horiz-adv-x="647" vert-adv-y="1433" d="M106 872q0 100 77 165q60 50 142 50q103 0 167 -80q48 -58 48 -139q0 -103 -80 -168q-59 -47 -138 -47q-85 0 -151 60q-65 60 -65 159zM127 -204q0 56 12 165l62 561h245l58 -561q14 -136 14 -170q0 -108 -69 -169q-52 -46 -127 -46q-83 0 -139 59t-56 161z" />
<glyph unicode="&#xa2;" horiz-adv-x="1014" vert-adv-y="1433" d="M82 702q0 246 136 392q100 108 265 147v197h230v-178q131 -8 229 -33v-269q-127 31 -229 31q-152 0 -232 -73t-80 -214q0 -147 96 -222q83 -64 234 -64q111 0 227 22v-272q-86 -20 -245 -21v-176h-230v199q-178 44 -277 159q-124 143 -124 375z" />
<glyph unicode="&#xa3;" horiz-adv-x="1249" vert-adv-y="1433" d="M125 0v244q100 27 148 125q25 50 39 128q4 20 14 82l2 11h-172v155l200 74l16 115l2 15q24 178 90 289q118 200 407 200q116 0 247 -31v-250q-105 37 -205 37q-122 0 -179 -65q-45 -52 -64 -187l-17 -121h303v-231h-335q-20 -123 -53 -193q-32 -71 -91 -131h668v-266 h-1020z" />
<glyph unicode="&#xa4;" vert-adv-y="1433" d="M119 362l135 140q-53 91 -53 203q0 105 51 200l-133 137l180 187l141 -146q98 43 191 43q99 0 188 -43l139 146l181 -187l-131 -135q53 -93 53 -202q0 -100 -53 -205l131 -138l-181 -186l-143 148q-88 -41 -185 -41q-98 0 -188 43l-143 -150zM420 705q0 -93 61 -158 q62 -66 149 -66q86 0 146 61q66 65 66 165q0 103 -77 170q-58 51 -136 51q-86 0 -148 -66q-61 -65 -61 -157z" />
<glyph unicode="&#xa5;" horiz-adv-x="1374" vert-adv-y="1433" d="M20 1407h355l317 -549l316 549h346l-367 -600h187v-182h-297l-31 -50v-106h328v-182h-328v-287h-314v287h-327v135l186 47h141v106l-30 50h-297v135l186 45z" />
<glyph unicode="&#xa6;" horiz-adv-x="645" vert-adv-y="1433" d="M186 289h273v-699h-273v699zM186 858v698h273v-698h-273z" />
<glyph unicode="&#xa7;" horiz-adv-x="1221" vert-adv-y="1433" d="M94 586q0 183 160 258q-150 95 -150 278q0 162 115 257q124 102 381 102q146 0 322 -33q66 -12 94 -16v-261q-255 56 -414 56q-117 0 -162 -28q-34 -21 -34 -66q0 -47 57 -79q33 -18 127 -46l178 -56q181 -57 246 -106q108 -82 108 -235q0 -175 -151 -251 q155 -100 155 -282q0 -164 -115 -259q-129 -106 -396 -106q-231 0 -433 54v274q212 -70 421 -70q148 0 198 32q26 17 26 53q0 64 -104 98l-274 90q-187 61 -246 106q-109 82 -109 236zM371 643q0 -52 42 -81q34 -24 201 -75q108 -34 144 -43q82 32 82 108q0 56 -42 84 q-43 28 -327 112q-100 -8 -100 -105z" />
<glyph unicode="&#xa8;" horiz-adv-x="1024" vert-adv-y="1433" d="M96 1379q0 77 60 128q45 37 108 37q77 0 126 -61q38 -46 38 -108q0 -77 -61 -126q-46 -37 -106 -37q-65 0 -115 45q-50 46 -50 122zM596 1379q0 77 60 128q44 37 108 37q77 0 126 -61q38 -47 38 -108q0 -78 -62 -127q-45 -36 -105 -36q-65 0 -115 45q-50 46 -50 122z" />
<glyph unicode="&#xa9;" horiz-adv-x="1696" vert-adv-y="1433" d="M90 723q0 212 109 393q117 193 317 289q155 76 335 76q202 0 379 -104q172 -99 272 -271q104 -178 104 -383t-104 -382q-101 -174 -272 -274q-178 -104 -382 -104q-291 0 -508 197q-117 106 -182 250q-68 149 -68 313zM301 723q0 -236 161 -402q161 -167 383 -167 q204 0 359 138q89 79 139 190q52 114 52 241q0 237 -160 402q-162 167 -387 167t-386 -167q-161 -166 -161 -402zM475 723q0 192 119 303q114 107 310 107q95 0 208 -23v-182q-85 16 -172 16q-112 0 -173 -60q-60 -59 -60 -161t63 -163q60 -58 166 -58q98 0 184 22v-188 q-102 -23 -217 -23q-178 0 -288 87q-140 110 -140 323z" />
<glyph unicode="&#xaa;" horiz-adv-x="1008" vert-adv-y="1433" d="M76 852q0 272 345 272q58 0 118 -10q37 -6 86 -18v32q0 53 -22 85q-44 65 -201 65q-124 0 -255 -51v188l7 2l49 17q82 30 239 30q216 0 308 -71q61 -47 84 -117q22 -64 22 -158v-540h-182l-25 71q-67 -44 -110 -60q-63 -24 -151 -24q-132 0 -213 61q-99 76 -99 226z M307 849q0 -57 43 -90q38 -30 107 -30q98 0 168 51v172q-80 23 -146 23q-91 0 -133 -36q-39 -35 -39 -90z" />
<glyph unicode="&#xab;" horiz-adv-x="1264" vert-adv-y="1433" d="M53 532l291 410h332l-287 -410l287 -409h-332zM588 532l291 410h331l-286 -410l286 -409h-331z" />
<glyph unicode="&#xac;" vert-adv-y="1433" d="M125 803v262h1008v-639h-279v377h-729z" />
<glyph unicode="&#xad;" horiz-adv-x="877" vert-adv-y="1433" d="M61 485v299h754v-299h-754z" />
<glyph unicode="&#xae;" horiz-adv-x="1696" vert-adv-y="1433" d="M90 723q0 212 109 393q117 193 317 289q155 76 335 76q202 0 379 -104q172 -99 272 -271q104 -178 104 -383t-104 -382q-101 -174 -272 -274q-178 -104 -382 -104q-291 0 -508 197q-117 106 -182 250q-68 149 -68 313zM301 723q0 -236 161 -402q161 -167 383 -167 q204 0 359 138q89 79 139 190q52 114 52 241q0 237 -160 402q-162 167 -387 167t-386 -167q-161 -166 -161 -402zM530 342v791h310q171 0 249 -94q50 -61 50 -162q0 -134 -111 -203l193 -332h-238l-143 264h-107v-264h-203zM733 766h72q117 0 117 106q0 49 -32 76 q-30 27 -85 27h-72v-209z" />
<glyph unicode="&#xaf;" horiz-adv-x="932" vert-adv-y="1433" d="M53 1237v190h826v-190h-826z" />
<glyph unicode="&#xb0;" horiz-adv-x="999" vert-adv-y="1433" d="M92 1182q0 166 121 285q121 120 288 120q119 0 222 -68q93 -61 142 -161q42 -88 42 -180q0 -161 -120 -282q-121 -120 -289 -120q-146 0 -262 99q-144 123 -144 307zM307 1180q0 -95 71 -155q52 -44 121 -44q78 0 136 57q57 56 57 146q0 93 -71 153q-52 45 -123 45 q-90 0 -147 -72q-44 -55 -44 -130z" />
<glyph unicode="&#xb1;" vert-adv-y="1433" d="M125 0v262h364v391h-364v262h364v410h279v-410h365v-262h-365v-391h365v-262h-1008z" />
<glyph unicode="&#xb2;" horiz-adv-x="1024" vert-adv-y="1433" d="M145 524v152q184 128 312 241q131 117 131 208q0 112 -162 112q-80 0 -240 -57v194q145 51 288 51q199 0 296 -93q68 -65 68 -177q0 -134 -128 -270q-63 -67 -184 -168h332v-193h-713z" />
<glyph unicode="&#xb3;" horiz-adv-x="1024" vert-adv-y="1433" d="M160 528v193q122 -27 244 -27q219 0 219 103q0 100 -205 100q-39 0 -67 -2q-4 0 -8 -1q-4 0 -44 -4l-10 -1v145l250 187h-377v186h661v-160l-254 -190q135 -8 211 -65q88 -67 88 -196q0 -134 -119 -212q-117 -78 -316 -78q-137 0 -273 22z" />
<glyph unicode="&#xb4;" horiz-adv-x="1024" vert-adv-y="1433" d="M297 1237l289 283h403l-383 -283h-309z" />
<glyph unicode="&#xb5;" horiz-adv-x="1247" vert-adv-y="1433" d="M133 -410v1475h311v-649q0 -168 149 -168q93 0 159 71q23 26 53 74v672h309v-1065h-248l-41 111q-37 -60 -101 -100t-137 -40q-82 0 -143 54v-435h-311z" />
<glyph unicode="&#xb6;" horiz-adv-x="1290" vert-adv-y="1433" d="M74 996q0 448 553 448h481v-1700h-203v1524h-172v-1524h-203v803q-203 15 -318 115q-138 119 -138 334z" />
<glyph unicode="&#xb7;" horiz-adv-x="598" vert-adv-y="1433" d="M100 705q0 94 73 154q54 45 128 45q92 0 150 -70q47 -56 47 -131q0 -81 -58 -139t-140 -58q-75 0 -131 48q-69 59 -69 151z" />
<glyph unicode="&#xb8;" horiz-adv-x="1024" vert-adv-y="1433" d="M250 -164q53 -24 113 -24q59 0 91 23q29 22 29 58q0 52 -69 97l-15 10h208q65 -46 88 -78q34 -48 34 -108q0 -100 -98 -153q-79 -42 -208 -42q-96 0 -173 31v186z" />
<glyph unicode="&#xb9;" horiz-adv-x="1024" vert-adv-y="1433" d="M197 1130v175l278 102h191v-883h-242v670z" />
<glyph unicode="&#xba;" horiz-adv-x="1085" vert-adv-y="1433" d="M106 1012q0 237 152 363q111 91 289 91q138 0 245 -68q187 -119 187 -391q0 -205 -121 -330q-118 -122 -319 -122q-175 0 -289 100q-144 125 -144 357zM348 1009q0 -115 51 -186q52 -71 141 -71t143 66q54 67 54 198q0 132 -66 201q-51 53 -132 53q-99 0 -151 -87 q-40 -66 -40 -174z" />
<glyph unicode="&#xbb;" horiz-adv-x="1264" vert-adv-y="1433" d="M53 123l287 409l-287 410h332l291 -410l-291 -409h-332zM588 123l286 409l-286 410h332l290 -410l-290 -409h-332z" />
<glyph unicode="&#xbc;" horiz-adv-x="2277" vert-adv-y="1433" d="M168 1130v175l278 102h191v-883h-242v670zM496 0l798 1407h271l-799 -1407h-270zM1217 141v189l448 553h229v-572h107v-170h-107v-141h-225v141h-452zM1417 311h252v320z" />
<glyph unicode="&#xbd;" horiz-adv-x="2277" vert-adv-y="1433" d="M168 1130v175l278 102h191v-883h-242v670zM496 0l798 1409h271l-799 -1409h-270zM1335 0v152q195 135 313 245q130 120 130 204q0 112 -164 112q-91 0 -240 -58v195q148 51 290 51q197 0 293 -93q68 -65 68 -180q0 -135 -137 -279q-73 -78 -174 -156h332v-193h-711z" />
<glyph unicode="&#xbe;" horiz-adv-x="2277" vert-adv-y="1433" d="M143 528v193q122 -27 245 -27q218 0 218 103q0 100 -204 100q-38 0 -67 -2q-4 0 -8 -1q-8 -1 -45 -4l-10 -1v145l250 187h-377v186h662v-160l-254 -190q135 -8 211 -65q88 -66 88 -196q0 -134 -119 -212q-117 -78 -316 -78q-135 0 -274 22zM623 0l798 1407h271 l-799 -1407h-270zM1323 141v189l449 553h229v-572h106v-170h-106v-141h-225v141h-453zM1524 311h252v320z" />
<glyph unicode="&#xbf;" horiz-adv-x="979" vert-adv-y="1433" d="M82 -70q0 184 162 324q75 65 105 107q46 66 46 141v20h297v-43q0 -200 -171 -339q-76 -61 -96 -90q-28 -40 -28 -89q0 -139 209 -139q151 0 330 86v-270q-170 -70 -390 -70q-228 0 -352 110q-112 99 -112 252zM326 868q0 104 79 169q57 48 140 48q102 0 165 -78 q50 -60 50 -142q0 -102 -80 -167q-57 -47 -137 -47q-82 0 -142 52q-75 65 -75 165z" />
<glyph unicode="&#xc0;" horiz-adv-x="1391" vert-adv-y="1433" d="M0 0l522 1444h348l521 -1444h-344l-84 256h-551l-86 -256h-326zM498 516h379l-189 571zM209 1889h403l289 -283h-309z" />
<glyph unicode="&#xc1;" horiz-adv-x="1391" vert-adv-y="1433" d="M0 0l522 1444h348l521 -1444h-344l-84 256h-551l-86 -256h-326zM498 516h379l-189 571zM522 1606l289 283h403l-383 -283h-309z" />
<glyph unicode="&#xc2;" horiz-adv-x="1391" vert-adv-y="1433" d="M0 0l522 1444h348l521 -1444h-344l-84 256h-551l-86 -256h-326zM498 516h379l-189 571zM238 1606l311 283h310l301 -283h-316l-145 141l-146 -141h-315z" />
<glyph unicode="&#xc3;" horiz-adv-x="1391" vert-adv-y="1433" d="M0 0l522 1444h348l521 -1444h-344l-84 256h-551l-86 -256h-326zM498 516h379l-189 571zM272 1612q12 107 59 169q72 93 203 93q79 0 223 -54q59 -22 84 -22q41 0 56 66h221q-31 -262 -262 -262q-72 0 -260 66q-29 10 -44 10q-28 0 -42 -21q-8 -15 -17 -45h-221z" />
<glyph unicode="&#xc4;" horiz-adv-x="1391" vert-adv-y="1433" d="M0 0l522 1444h348l521 -1444h-344l-84 256h-551l-86 -256h-326zM498 516h379l-189 571zM285 1742q0 77 60 128q45 37 108 37q77 0 126 -61q38 -46 38 -108q0 -77 -61 -126q-46 -37 -108 -37q-63 0 -113 45q-50 47 -50 122zM785 1742q0 77 60 128q44 37 108 37 q77 0 126 -61q38 -46 38 -108q0 -78 -62 -127q-45 -36 -106 -36q-64 0 -114 45q-50 46 -50 122z" />
<glyph unicode="&#xc5;" horiz-adv-x="1391" vert-adv-y="1433" d="M0 0l522 1444h2q-107 72 -107 206q0 128 96 199q73 54 188 54q140 0 219 -89q58 -66 58 -166q0 -131 -108 -204l521 -1444h-344l-84 256h-551l-86 -256h-326zM498 516h379l-189 571zM585 1649q0 -53 44 -81q28 -19 68 -19q44 0 77 25q37 29 37 78q0 51 -44 80 q-30 20 -71 20q-51 0 -84 -34q-27 -28 -27 -69z" />
<glyph unicode="&#xc6;" horiz-adv-x="2075" vert-adv-y="1433" d="M0 0l817 1444h1125v-277h-535v-293h510v-276h-510v-322h555v-276h-891v315h-543l-174 -315h-354zM680 588h391v590h-65z" />
<glyph unicode="&#xc7;" horiz-adv-x="1208" vert-adv-y="1433" d="M72 719q0 354 202 557q197 199 536 199q73 0 149 -9q86 -9 174 -28v-273l-8 2q-153 37 -264 37q-220 0 -334 -128q-108 -122 -108 -356q0 -233 124 -361q115 -117 321 -117q148 0 286 37v-279q-130 -26 -283 -31q80 -58 80 -155q0 -100 -99 -153q-78 -42 -195 -42h-14 q-130 1 -227 31v186q80 -24 164 -24q125 0 125 82q0 51 -61 92q-244 47 -384 197q-184 198 -184 536z" />
<glyph unicode="&#xc8;" horiz-adv-x="1178" vert-adv-y="1433" d="M174 0v1444h870v-277h-534v-293h510v-276h-510v-322h555v-276h-891zM166 1889h403l289 -283h-309z" />
<glyph unicode="&#xc9;" horiz-adv-x="1178" vert-adv-y="1433" d="M174 0v1444h870v-277h-534v-293h510v-276h-510v-322h555v-276h-891zM338 1606l289 283h403l-383 -283h-309z" />
<glyph unicode="&#xca;" horiz-adv-x="1178" vert-adv-y="1433" d="M174 0v1444h870v-277h-534v-293h510v-276h-510v-322h555v-276h-891zM51 1606l311 283h310l301 -283h-316l-145 141l-146 -141h-315z" />
<glyph unicode="&#xcb;" horiz-adv-x="1178" vert-adv-y="1433" d="M174 0v1444h870v-277h-534v-293h510v-276h-510v-322h555v-276h-891zM96 1742q0 77 60 128q45 37 108 37q77 0 126 -61q38 -46 38 -108q0 -77 -61 -126q-46 -37 -108 -37q-63 0 -113 45q-50 47 -50 122zM596 1742q0 77 60 128q44 37 108 37q77 0 126 -61q38 -46 38 -108 q0 -78 -62 -127q-45 -36 -106 -36q-64 0 -114 45q-50 46 -50 122z" />
<glyph unicode="&#xcc;" horiz-adv-x="684" vert-adv-y="1433" d="M174 0v1444h336v-1444h-336zM-154 1889h403l289 -283h-309z" />
<glyph unicode="&#xcd;" horiz-adv-x="684" vert-adv-y="1433" d="M174 0v1444h336v-1444h-336zM138 1606l289 283h403l-383 -283h-309z" />
<glyph unicode="&#xce;" horiz-adv-x="684" vert-adv-y="1433" d="M174 0v1444h336v-1444h-336zM-116 1606l311 283h310l301 -283h-316l-145 141l-146 -141h-315z" />
<glyph unicode="&#xcf;" horiz-adv-x="684" vert-adv-y="1433" d="M-47 1742q0 77 60 128q45 37 108 37q77 0 126 -61q38 -46 38 -108q0 -77 -61 -126q-46 -37 -108 -37q-63 0 -113 45q-50 47 -50 122zM174 0v1444h336v-1444h-336zM399 1742q0 77 60 128q44 37 108 37q77 0 126 -61q38 -46 38 -108q0 -78 -62 -127q-45 -36 -106 -36 q-64 0 -114 45q-50 46 -50 122z" />
<glyph unicode="&#xd0;" horiz-adv-x="1473" vert-adv-y="1433" d="M-33 606v191h207v647h502q336 0 520 -187q186 -188 186 -534q0 -348 -186 -536q-184 -187 -520 -187h-502v606h-207zM510 272h160q144 0 234 76q132 110 132 374q0 218 -93 334q-93 115 -273 115h-160v-374h283v-191h-283v-334z" />
<glyph unicode="&#xd1;" horiz-adv-x="1491" vert-adv-y="1433" d="M174 0v1444h326l493 -907v907h324v-1444h-313l-506 924v-924h-324zM352 1612q12 107 59 169q72 93 203 93q79 0 223 -54q59 -22 84 -22q41 0 56 66h221q-31 -262 -262 -262q-72 0 -260 66q-29 10 -44 10q-28 0 -42 -21q-8 -15 -17 -45h-221z" />
<glyph unicode="&#xd2;" horiz-adv-x="1556" vert-adv-y="1433" d="M90 725q0 355 186 556q184 200 500 200q317 0 503 -200q187 -202 187 -556q0 -356 -187 -560q-185 -202 -505 -202q-281 0 -461 165q-223 204 -223 597zM436 725q0 -229 83 -357q89 -139 255 -139q163 0 254 125q92 126 92 378q0 256 -112 386q-42 48 -111 74 q-59 22 -124 22q-165 0 -254 -136q-83 -126 -83 -353zM346 1889h403l289 -283h-309z" />
<glyph unicode="&#xd3;" horiz-adv-x="1556" vert-adv-y="1433" d="M90 725q0 355 186 556q184 200 500 200q317 0 503 -200q187 -202 187 -556q0 -356 -187 -560q-185 -202 -505 -202q-281 0 -461 165q-223 204 -223 597zM436 725q0 -229 83 -357q89 -139 255 -139q163 0 254 125q92 126 92 378q0 256 -112 386q-42 48 -111 74 q-59 22 -124 22q-165 0 -254 -136q-83 -126 -83 -353zM571 1606l289 283h403l-383 -283h-309z" />
<glyph unicode="&#xd4;" horiz-adv-x="1556" vert-adv-y="1433" d="M90 725q0 355 186 556q184 200 500 200q317 0 503 -200q187 -202 187 -556q0 -356 -187 -560q-185 -202 -505 -202q-281 0 -461 165q-223 204 -223 597zM436 725q0 -229 83 -357q89 -139 255 -139q163 0 254 125q92 126 92 378q0 256 -112 386q-42 48 -111 74 q-59 22 -124 22q-165 0 -254 -136q-83 -126 -83 -353zM320 1606l311 283h310l301 -283h-316l-145 141l-146 -141h-315z" />
<glyph unicode="&#xd5;" horiz-adv-x="1556" vert-adv-y="1433" d="M90 725q0 355 186 556q184 200 500 200q317 0 503 -200q187 -202 187 -556q0 -356 -187 -560q-185 -202 -505 -202q-281 0 -461 165q-223 204 -223 597zM436 725q0 -229 83 -357q89 -139 255 -139q163 0 254 125q92 126 92 378q0 256 -112 386q-42 48 -111 74 q-59 22 -124 22q-165 0 -254 -136q-83 -126 -83 -353zM354 1612q12 107 59 169q72 93 203 93q79 0 223 -54q59 -22 84 -22q41 0 56 66h221q-31 -262 -262 -262q-72 0 -260 66q-29 10 -44 10q-28 0 -42 -21q-8 -15 -17 -45h-221z" />
<glyph unicode="&#xd6;" horiz-adv-x="1556" vert-adv-y="1433" d="M90 725q0 355 186 556q184 200 500 200q317 0 503 -200q187 -202 187 -556q0 -356 -187 -560q-185 -202 -505 -202q-281 0 -461 165q-223 204 -223 597zM436 725q0 -229 83 -357q89 -139 255 -139q163 0 254 125q92 126 92 378q0 256 -112 386q-42 48 -111 74 q-59 22 -124 22q-165 0 -254 -136q-83 -126 -83 -353zM367 1742q0 77 60 128q45 37 108 37q77 0 126 -61q38 -46 38 -108q0 -77 -61 -126q-46 -37 -108 -37q-63 0 -113 45q-50 47 -50 122zM867 1742q0 77 60 128q44 37 108 37q77 0 126 -61q38 -46 38 -108q0 -78 -62 -127 q-45 -36 -106 -36q-64 0 -114 45q-50 46 -50 122z" />
<glyph unicode="&#xd7;" vert-adv-y="1433" d="M152 414l284 274l-284 273l188 188l289 -277l289 277l188 -188l-285 -273l285 -274l-188 -189l-289 279l-289 -279z" />
<glyph unicode="&#xd8;" horiz-adv-x="1556" vert-adv-y="1433" d="M90 725q0 355 186 556q184 200 498 200q183 0 352 -80l127 180l181 -127l-138 -192q170 -206 170 -537q0 -356 -187 -560q-185 -202 -502 -202q-189 0 -345 80l-129 -180l-180 127l137 192q-170 212 -170 543zM436 725q0 -142 33 -250l487 688q-77 51 -179 51 q-169 0 -258 -136q-83 -126 -83 -353zM600 281q75 -52 176 -52q161 0 252 125q92 126 92 374q0 136 -33 241z" />
<glyph unicode="&#xd9;" horiz-adv-x="1499" vert-adv-y="1433" d="M158 537v907h336v-918q0 -141 54 -207q62 -75 200 -75q154 0 215 92q43 63 43 190v918h335v-907q0 -281 -149 -427q-150 -147 -443 -147q-245 0 -387 101q-204 145 -204 473zM296 1889h403l289 -283h-309z" />
<glyph unicode="&#xda;" horiz-adv-x="1499" vert-adv-y="1433" d="M158 537v907h336v-918q0 -141 54 -207q62 -75 200 -75q154 0 215 92q43 63 43 190v918h335v-907q0 -281 -149 -427q-150 -147 -443 -147q-245 0 -387 101q-204 145 -204 473zM534 1606l289 283h403l-383 -283h-309z" />
<glyph unicode="&#xdb;" horiz-adv-x="1499" vert-adv-y="1433" d="M158 537v907h336v-918q0 -141 54 -207q62 -75 200 -75q154 0 215 92q43 63 43 190v918h335v-907q0 -281 -149 -427q-150 -147 -443 -147q-245 0 -387 101q-204 145 -204 473zM292 1606l311 283h310l301 -283h-316l-145 141l-146 -141h-315z" />
<glyph unicode="&#xdc;" horiz-adv-x="1499" vert-adv-y="1433" d="M158 537v907h336v-918q0 -141 54 -207q62 -75 200 -75q154 0 215 92q43 63 43 190v918h335v-907q0 -281 -149 -427q-150 -147 -443 -147q-245 0 -387 101q-204 145 -204 473zM323 1742q0 77 60 128q45 37 108 37q77 0 126 -61q38 -46 38 -108q0 -77 -61 -126 q-46 -37 -108 -37q-63 0 -113 45q-50 47 -50 122zM823 1742q0 77 60 128q44 37 108 37q77 0 126 -61q38 -46 38 -108q0 -78 -62 -127q-45 -36 -106 -36q-64 0 -114 45q-50 46 -50 122z" />
<glyph unicode="&#xdd;" horiz-adv-x="1374" vert-adv-y="1433" d="M0 1444h362l330 -619l330 619h352l-518 -920v-524h-336v524zM483 1606l289 283h403l-383 -283h-309z" />
<glyph unicode="&#xde;" horiz-adv-x="1260" vert-adv-y="1433" d="M174 0v1444h326v-240h153q272 0 414 -134q131 -123 131 -339q0 -217 -131 -341q-141 -134 -414 -134h-153v-256h-326zM500 524h147q132 0 184 75q33 47 33 136q0 201 -217 201h-147v-412z" />
<glyph unicode="&#xdf;" horiz-adv-x="1319" vert-adv-y="1433" d="M6 821v176l178 68v55q0 235 135 353q128 114 375 114q228 0 361 -120q123 -112 123 -285q0 -152 -77 -244q-46 -54 -122 -94q130 -58 189 -146q59 -87 59 -242q0 -214 -132 -344q-130 -128 -350 -128h-15q-44 0 -103 6v254q26 -4 58 -4q222 0 222 238q0 224 -245 224h-35 v244q109 1 170 57q63 58 63 171q0 89 -57 141q-47 43 -124 43q-107 0 -150 -67q-35 -54 -35 -169v-1122h-310v821h-178z" />
<glyph unicode="&#xe0;" horiz-adv-x="1182" vert-adv-y="1433" d="M68 340q0 174 119 263q108 79 311 79q116 0 245 -35v33q0 75 -41 117q-57 59 -228 59q-154 0 -318 -65v243q179 62 392 62q329 0 440 -165q61 -92 61 -265v-666h-244l-29 84q-80 -52 -130 -70q-83 -30 -189 -30q-164 0 -265 76q-124 94 -124 280zM375 336q0 -59 38 -94 q43 -39 130 -39q119 0 200 59v193q-97 26 -179 26q-189 0 -189 -145zM95 1520h403l289 -283h-309z" />
<glyph unicode="&#xe1;" horiz-adv-x="1182" vert-adv-y="1433" d="M68 340q0 174 119 263q108 79 311 79q116 0 245 -35v33q0 75 -41 117q-57 59 -228 59q-154 0 -318 -65v243q179 62 392 62q329 0 440 -165q61 -92 61 -265v-666h-244l-29 84q-80 -52 -130 -70q-83 -30 -189 -30q-164 0 -265 76q-124 94 -124 280zM375 336q0 -59 38 -94 q43 -39 130 -39q119 0 200 59v193q-97 26 -179 26q-189 0 -189 -145zM297 1237l289 283h403l-383 -283h-309z" />
<glyph unicode="&#xe2;" horiz-adv-x="1182" vert-adv-y="1433" d="M68 340q0 174 119 263q108 79 311 79q116 0 245 -35v33q0 75 -41 117q-57 59 -228 59q-154 0 -318 -65v243q179 62 392 62q329 0 440 -165q61 -92 61 -265v-666h-244l-29 84q-80 -52 -130 -70q-83 -30 -189 -30q-164 0 -265 76q-124 94 -124 280zM375 336q0 -59 38 -94 q43 -39 130 -39q119 0 200 59v193q-97 26 -179 26q-189 0 -189 -145zM51 1237l311 283h310l301 -283h-316l-145 141l-146 -141h-315z" />
<glyph unicode="&#xe3;" horiz-adv-x="1182" vert-adv-y="1433" d="M68 340q0 174 119 263q108 79 311 79q116 0 245 -35v33q0 75 -41 117q-57 59 -228 59q-154 0 -318 -65v243q179 62 392 62q329 0 440 -165q61 -92 61 -265v-666h-244l-29 84q-80 -52 -130 -70q-83 -30 -189 -30q-164 0 -265 76q-124 94 -124 280zM375 336q0 -59 38 -94 q43 -39 130 -39q119 0 200 59v193q-97 26 -179 26q-189 0 -189 -145zM89 1243q12 107 59 169q72 93 204 93q78 0 222 -54q60 -22 84 -22q39 0 56 66h221q-31 -262 -265 -262q-77 0 -257 66q-27 10 -45 10q-41 0 -58 -66h-221z" />
<glyph unicode="&#xe4;" horiz-adv-x="1182" vert-adv-y="1433" d="M68 340q0 174 119 263q108 79 311 79q116 0 245 -35v33q0 75 -41 117q-57 59 -228 59q-154 0 -318 -65v243q179 62 392 62q329 0 440 -165q61 -92 61 -265v-666h-244l-29 84q-80 -52 -130 -70q-83 -30 -189 -30q-164 0 -265 76q-124 94 -124 280zM375 336q0 -59 38 -94 q43 -39 130 -39q119 0 200 59v193q-97 26 -179 26q-189 0 -189 -145zM96 1379q0 77 60 128q45 37 108 37q77 0 126 -61q38 -46 38 -108q0 -77 -61 -126q-46 -37 -106 -37q-65 0 -115 45q-50 46 -50 122zM596 1379q0 77 60 128q44 37 108 37q77 0 126 -61q38 -47 38 -108 q0 -78 -62 -127q-45 -36 -105 -36q-65 0 -115 45q-50 46 -50 122z" />
<glyph unicode="&#xe5;" horiz-adv-x="1182" vert-adv-y="1433" d="M68 340q0 174 119 263q108 79 311 79q116 0 245 -35v33q0 75 -41 117q-57 59 -228 59q-154 0 -318 -65v243q179 62 392 62q329 0 440 -165q61 -92 61 -265v-666h-244l-29 84q-80 -52 -130 -70q-83 -30 -189 -30q-164 0 -265 76q-124 94 -124 280zM375 336q0 -59 38 -94 q43 -39 130 -39q119 0 200 59v193q-97 26 -179 26q-189 0 -189 -145zM232 1451q0 132 96 205q72 56 188 56q140 0 219 -91q58 -68 58 -173q0 -114 -77 -185q-78 -72 -203 -72q-114 0 -189 60q-92 73 -92 200zM400 1451q0 -57 43 -88q29 -20 70 -20q43 0 76 27q37 30 37 84 q0 55 -44 85q-31 22 -70 22q-52 0 -85 -37q-27 -29 -27 -73z" />
<glyph unicode="&#xe6;" horiz-adv-x="1837" vert-adv-y="1433" d="M68 340q0 174 119 263q108 79 311 79q116 0 245 -35v33q0 75 -41 117q-57 59 -228 59q-154 0 -318 -65v243q179 62 389 62q176 0 282 -52q56 -27 103 -77q137 129 352 129q233 0 363 -151q120 -140 120 -372v-29v-30q0 -31 -2 -76h-714q20 -80 76 -130q88 -79 292 -79 q129 0 275 19v-258q-164 -21 -335 -21q-287 0 -454 148q-78 -63 -158 -91q-116 -42 -273 -42q-194 0 -298 92q-106 94 -106 264zM375 336q0 -59 38 -94q43 -39 130 -39q142 0 231 86q-27 72 -31 166q-97 26 -179 26q-189 0 -189 -145zM1047 639h415q-18 227 -204 227 q-173 0 -211 -227z" />
<glyph unicode="&#xe7;" horiz-adv-x="1014" vert-adv-y="1433" d="M62 532q0 263 150 409q153 149 438 149q138 0 272 -33v-269q-121 31 -229 31q-312 0 -312 -289q0 -145 96 -220q83 -64 236 -64q126 0 225 22v-272q-89 -15 -160 -16h-10h-8q-10 -1 -13 -2q-7 -1 -19 -1q92 -61 92 -163q0 -100 -99 -153q-78 -42 -205 -42q-129 0 -231 31 v186q79 -24 164 -24q125 0 125 81q0 52 -70 97q-195 36 -306 154q-136 145 -136 388z" />
<glyph unicode="&#xe8;" horiz-adv-x="1190" vert-adv-y="1433" d="M82 535q0 253 141 406q143 155 388 155q179 0 305 -84q116 -78 161 -206q41 -115 41 -233v-29v-30q0 -41 -2 -76h-715q21 -80 77 -130q88 -79 292 -79q131 0 274 19v-258q-163 -21 -334 -21q-263 0 -425 124q-203 154 -203 442zM399 639h416q-20 227 -205 227 q-111 0 -168 -97q-30 -51 -43 -130zM95 1520h403l289 -283h-309z" />
<glyph unicode="&#xe9;" horiz-adv-x="1190" vert-adv-y="1433" d="M82 535q0 253 141 406q143 155 388 155q179 0 305 -84q116 -78 161 -206q41 -115 41 -233v-29v-30q0 -41 -2 -76h-715q21 -80 77 -130q88 -79 292 -79q131 0 274 19v-258q-163 -21 -334 -21q-263 0 -425 124q-203 154 -203 442zM399 639h416q-20 227 -205 227 q-111 0 -168 -97q-30 -51 -43 -130zM297 1237l289 283h403l-383 -283h-309z" />
<glyph unicode="&#xea;" horiz-adv-x="1190" vert-adv-y="1433" d="M82 535q0 253 141 406q143 155 388 155q179 0 305 -84q116 -78 161 -206q41 -115 41 -233v-29v-30q0 -41 -2 -76h-715q21 -80 77 -130q88 -79 292 -79q131 0 274 19v-258q-163 -21 -334 -21q-263 0 -425 124q-203 154 -203 442zM399 639h416q-20 227 -205 227 q-111 0 -168 -97q-30 -51 -43 -130zM51 1237l311 283h310l301 -283h-316l-145 141l-146 -141h-315z" />
<glyph unicode="&#xeb;" horiz-adv-x="1190" vert-adv-y="1433" d="M82 535q0 253 141 406q143 155 388 155q179 0 305 -84q116 -78 161 -206q41 -115 41 -233v-29v-30q0 -41 -2 -76h-715q21 -80 77 -130q88 -79 292 -79q131 0 274 19v-258q-163 -21 -334 -21q-263 0 -425 124q-203 154 -203 442zM399 639h416q-20 227 -205 227 q-111 0 -168 -97q-30 -51 -43 -130zM96 1379q0 77 60 128q45 37 108 37q77 0 126 -61q38 -46 38 -108q0 -77 -61 -126q-46 -37 -106 -37q-65 0 -115 45q-50 46 -50 122zM596 1379q0 77 60 128q44 37 108 37q77 0 126 -61q38 -47 38 -108q0 -78 -62 -127q-45 -36 -105 -36 q-65 0 -115 45q-50 46 -50 122z" />
<glyph unicode="&#xec;" horiz-adv-x="594" vert-adv-y="1433" d="M141 0v1065h310v-1065h-310zM-163 1520h403l289 -283h-309z" />
<glyph unicode="&#xed;" horiz-adv-x="594" vert-adv-y="1433" d="M141 0v1065h310v-1065h-310zM51 1237l289 283h403l-383 -283h-309z" />
<glyph unicode="&#xee;" horiz-adv-x="594" vert-adv-y="1433" d="M141 0v1065h310v-1065h-310zM-166 1237l311 283h310l301 -283h-316l-145 141l-146 -141h-315z" />
<glyph unicode="&#xef;" horiz-adv-x="594" vert-adv-y="1433" d="M-79 1379q0 77 60 128q45 37 108 37q77 0 126 -61q38 -46 38 -108q0 -77 -61 -126q-46 -37 -106 -37q-65 0 -115 45q-50 46 -50 122zM141 0v1065h310v-1065h-310zM339 1379q0 77 60 128q44 37 108 37q77 0 126 -61q38 -47 38 -108q0 -78 -62 -127q-46 -36 -105 -36 q-65 0 -115 45q-50 46 -50 122z" />
<glyph unicode="&#xf0;" horiz-adv-x="1247" vert-adv-y="1433" d="M82 511q0 231 128 378q131 151 347 151q80 0 134 -19q43 -15 93 -50q-65 157 -161 239l-127 -106l-105 121l105 88q-101 67 -166 98l92 158q117 -41 242 -115l135 119l104 -121l-102 -86q364 -311 364 -788q0 -273 -128 -431q-144 -178 -416 -178q-220 0 -366 128 q-173 152 -173 414zM399 506q0 -124 59 -196q58 -70 162 -70q100 0 162 65q64 67 64 203t-75 207q-58 55 -153 55q-100 0 -160 -69q-59 -69 -59 -195z" />
<glyph unicode="&#xf1;" horiz-adv-x="1247" vert-adv-y="1433" d="M133 0v1065h248l41 -111q155 142 339 142q172 0 266 -105q87 -96 87 -264v-727h-311v662q0 155 -149 155q-123 0 -212 -145v-672h-309zM89 1243q12 107 59 169q72 93 204 93q78 0 222 -54q60 -22 84 -22q39 0 56 66h221q-31 -262 -265 -262q-77 0 -257 66q-27 10 -45 10 q-41 0 -58 -66h-221z" />
<glyph unicode="&#xf2;" horiz-adv-x="1249" vert-adv-y="1433" d="M82 535q0 255 146 407q147 154 395 154q250 0 398 -152q146 -151 146 -409t-146 -411q-148 -155 -400 -155q-221 0 -365 128q-174 156 -174 438zM401 534q0 -146 59 -221q57 -73 161 -73q227 0 227 293q0 292 -225 292q-222 0 -222 -291zM95 1520h403l289 -283h-309z" />
<glyph unicode="&#xf3;" horiz-adv-x="1249" vert-adv-y="1433" d="M82 535q0 255 146 407q147 154 395 154q250 0 398 -152q146 -151 146 -409t-146 -411q-148 -155 -400 -155q-221 0 -365 128q-174 156 -174 438zM401 534q0 -146 59 -221q57 -73 161 -73q227 0 227 293q0 292 -225 292q-222 0 -222 -291zM297 1237l289 283h403l-383 -283 h-309z" />
<glyph unicode="&#xf4;" horiz-adv-x="1249" vert-adv-y="1433" d="M82 535q0 255 146 407q147 154 395 154q250 0 398 -152q146 -151 146 -409t-146 -411q-148 -155 -400 -155q-221 0 -365 128q-174 156 -174 438zM401 534q0 -146 59 -221q57 -73 161 -73q227 0 227 293q0 292 -225 292q-222 0 -222 -291zM51 1237l311 283h310l301 -283 h-316l-145 141l-146 -141h-315z" />
<glyph unicode="&#xf5;" horiz-adv-x="1249" vert-adv-y="1433" d="M82 535q0 255 146 407q147 154 395 154q250 0 398 -152q146 -151 146 -409t-146 -411q-148 -155 -400 -155q-221 0 -365 128q-174 156 -174 438zM401 534q0 -146 59 -221q57 -73 161 -73q227 0 227 293q0 292 -225 292q-222 0 -222 -291zM89 1243q12 107 59 169 q72 93 204 93q78 0 222 -54q60 -22 84 -22q39 0 56 66h221q-31 -262 -265 -262q-77 0 -257 66q-27 10 -45 10q-41 0 -58 -66h-221z" />
<glyph unicode="&#xf6;" horiz-adv-x="1249" vert-adv-y="1433" d="M82 535q0 255 146 407q147 154 395 154q250 0 398 -152q146 -151 146 -409t-146 -411q-148 -155 -400 -155q-221 0 -365 128q-174 156 -174 438zM401 534q0 -146 59 -221q57 -73 161 -73q227 0 227 293q0 292 -225 292q-222 0 -222 -291zM96 1379q0 77 60 128 q45 37 108 37q77 0 126 -61q38 -46 38 -108q0 -77 -61 -126q-46 -37 -106 -37q-65 0 -115 45q-50 46 -50 122zM596 1379q0 77 60 128q44 37 108 37q77 0 126 -61q38 -47 38 -108q0 -78 -62 -127q-45 -36 -105 -36q-65 0 -115 45q-50 46 -50 122z" />
<glyph unicode="&#xf7;" vert-adv-y="1433" d="M125 571v263h1008v-263h-1008zM453 297q0 83 65 136q48 40 113 40q81 0 134 -66q40 -48 40 -112q0 -82 -66 -135q-48 -39 -110 -39q-64 0 -114 43q-62 53 -62 133zM453 1108q0 83 65 137q48 39 113 39q81 0 134 -66q40 -48 40 -112q0 -82 -66 -135q-48 -39 -110 -39 q-64 0 -114 43q-62 53 -62 133z" />
<glyph unicode="&#xf8;" horiz-adv-x="1249" vert-adv-y="1433" d="M82 533q0 257 146 409q146 154 395 154q153 0 278 -64l103 137l124 -94l-102 -137q141 -159 141 -403q0 -258 -146 -411q-148 -155 -398 -155q-150 0 -275 64l-102 -139l-125 94l104 139q-143 158 -143 406zM387 535q0 -91 25 -158l325 438q-51 25 -113 25 q-113 0 -174 -76q-63 -78 -63 -229zM512 250q52 -25 112 -25q90 0 149 51q89 77 89 258q0 91 -22 156z" />
<glyph unicode="&#xf9;" horiz-adv-x="1247" vert-adv-y="1433" d="M133 338v727h311v-662q0 -155 150 -155q123 0 211 145v672h309v-1065h-248l-41 111q-149 -142 -339 -142q-134 0 -224 67q-129 97 -129 302zM95 1520h403l289 -283h-309z" />
<glyph unicode="&#xfa;" horiz-adv-x="1247" vert-adv-y="1433" d="M133 338v727h311v-662q0 -155 150 -155q123 0 211 145v672h309v-1065h-248l-41 111q-149 -142 -339 -142q-134 0 -224 67q-129 97 -129 302zM430 1237l289 283h403l-383 -283h-309z" />
<glyph unicode="&#xfb;" horiz-adv-x="1247" vert-adv-y="1433" d="M133 338v727h311v-662q0 -155 150 -155q123 0 211 145v672h309v-1065h-248l-41 111q-149 -142 -339 -142q-134 0 -224 67q-129 97 -129 302zM51 1237l311 283h310l301 -283h-316l-145 141l-146 -141h-315z" />
<glyph unicode="&#xfc;" horiz-adv-x="1247" vert-adv-y="1433" d="M133 338v727h311v-662q0 -155 150 -155q123 0 211 145v672h309v-1065h-248l-41 111q-149 -142 -339 -142q-134 0 -224 67q-129 97 -129 302zM96 1379q0 77 60 128q45 37 108 37q77 0 126 -61q38 -46 38 -108q0 -77 -61 -126q-46 -37 -106 -37q-65 0 -115 45 q-50 46 -50 122zM596 1379q0 77 60 128q44 37 108 37q77 0 126 -61q38 -47 38 -108q0 -78 -62 -127q-45 -36 -105 -36q-65 0 -115 45q-50 46 -50 122z" />
<glyph unicode="&#xfd;" horiz-adv-x="1145" vert-adv-y="1433" d="M0 1065h326l256 -623l254 623h309l-643 -1473h-309l221 523zM297 1237l289 283h403l-383 -283h-309z" />
<glyph unicode="&#xfe;" vert-adv-y="1433" d="M133 -410v1966h289v-589q141 120 301 120q147 0 258 -83q195 -147 195 -489q0 -255 -129 -405q-121 -139 -328 -139q-177 0 -277 99v-480h-309zM442 373q81 -127 204 -127q210 0 210 281q0 163 -79 238q-47 44 -129 44q-131 0 -206 -121v-315z" />
<glyph unicode="&#xff;" horiz-adv-x="1145" vert-adv-y="1433" d="M0 1065h326l256 -623l254 623h309l-643 -1473h-309l221 523zM96 1379q0 77 60 128q45 37 108 37q77 0 126 -61q38 -46 38 -108q0 -77 -61 -126q-46 -37 -106 -37q-65 0 -115 45q-50 46 -50 122zM596 1379q0 77 60 128q44 37 108 37q77 0 126 -61q38 -47 38 -108 q0 -78 -62 -127q-45 -36 -105 -36q-65 0 -115 45q-50 46 -50 122z" />
<glyph unicode="&#x131;" horiz-adv-x="594" vert-adv-y="1433" d="M141 0v1065h310v-1065h-310z" />
<glyph unicode="&#x152;" horiz-adv-x="2025" vert-adv-y="1433" d="M90 723q0 344 195 537q186 184 508 184h1099v-277h-534v-293h510v-276h-510v-322h555v-276h-1120q-290 0 -471 151q-232 192 -232 572zM436 723q0 -208 103 -328q101 -119 282 -119h201v891h-201q-179 0 -282 -120q-103 -118 -103 -324z" />
<glyph unicode="&#x153;" horiz-adv-x="1944" vert-adv-y="1433" d="M82 535q0 254 144 407q144 154 384 154q252 0 389 -158q144 158 384 158q239 0 369 -151q120 -140 120 -372v-29v-30q0 -31 -2 -76h-715q21 -80 76 -130q89 -79 292 -79q129 0 275 19v-258q-167 -21 -317 -21q-209 0 -343 69q-71 37 -132 103q-155 -172 -400 -172 q-212 0 -351 127q-173 158 -173 439zM401 534q0 -146 59 -221q57 -73 161 -73q227 0 227 293q0 292 -225 292q-222 0 -222 -291zM1153 639h416q-18 227 -205 227q-69 0 -125 -45q-64 -54 -86 -182z" />
<glyph unicode="&#x178;" horiz-adv-x="1374" vert-adv-y="1433" d="M0 1444h362l330 -619l330 619h352l-518 -920v-524h-336v524zM279 1742q0 77 60 128q45 37 108 37q77 0 126 -61q38 -46 38 -108q0 -77 -61 -126q-46 -37 -108 -37q-63 0 -113 45q-50 47 -50 122zM779 1742q0 77 60 128q44 37 108 37q77 0 126 -61q38 -46 38 -108 q0 -78 -62 -127q-45 -36 -106 -36q-64 0 -114 45q-50 46 -50 122z" />
<glyph unicode="&#x2c6;" horiz-adv-x="1024" vert-adv-y="1433" d="M51 1237l311 283h310l301 -283h-316l-145 141l-146 -141h-315z" />
<glyph unicode="&#x2da;" horiz-adv-x="1024" vert-adv-y="1433" d="M232 1451q0 132 96 205q72 56 188 56q140 0 219 -91q58 -68 58 -173q0 -114 -77 -185q-78 -72 -203 -72q-114 0 -189 60q-92 73 -92 200zM400 1451q0 -57 43 -88q29 -20 70 -20q43 0 76 27q37 30 37 84q0 55 -44 85q-31 22 -70 22q-52 0 -85 -37q-27 -29 -27 -73z" />
<glyph unicode="&#x2dc;" horiz-adv-x="1024" vert-adv-y="1433" d="M89 1243q12 107 59 169q72 93 204 93q78 0 222 -54q60 -22 84 -22q39 0 56 66h221q-31 -262 -265 -262q-77 0 -257 66q-27 10 -45 10q-41 0 -58 -66h-221z" />
<glyph unicode="&#x2013;" horiz-adv-x="1024" vert-adv-y="1433" d="M0 586v262h1024v-262h-1024z" />
<glyph unicode="&#x2014;" horiz-adv-x="2048" vert-adv-y="1433" d="M0 586v262h2048v-262h-2048z" />
<glyph unicode="&#x2018;" horiz-adv-x="598" vert-adv-y="1433" d="M100 1081q0 42 11 82q9 38 47 111l145 282h195l-148 -296q61 -12 101 -56q47 -53 47 -127q0 -80 -58 -138t-143 -58q-72 0 -128 48q-69 59 -69 152z" />
<glyph unicode="&#x2019;" horiz-adv-x="598" vert-adv-y="1433" d="M100 911l148 297q-59 10 -97 51q-51 53 -51 130q0 94 73 153q54 45 128 45q92 0 150 -70q47 -56 47 -131q0 -79 -58 -192l-145 -283h-195z" />
<glyph unicode="&#x201a;" horiz-adv-x="598" vert-adv-y="1433" d="M100 169q0 93 72 152q55 46 129 46q92 0 150 -70q47 -56 47 -133q0 -78 -58 -191l-145 -282h-195l148 297q-57 8 -97 51q-51 54 -51 130z" />
<glyph unicode="&#x201c;" horiz-adv-x="1128" vert-adv-y="1433" d="M100 1081q0 42 11 82q9 38 47 111l145 282h195l-148 -296q61 -12 101 -56q47 -53 47 -127q0 -80 -58 -138t-143 -58q-72 0 -128 48q-69 59 -69 152zM631 1082q0 82 57 192l146 282h194l-147 -296q62 -12 104 -60q43 -50 43 -123q0 -80 -58 -138t-143 -58q-71 0 -127 48 q-69 59 -69 153z" />
<glyph unicode="&#x201d;" horiz-adv-x="1128" vert-adv-y="1433" d="M100 911l148 297q-59 10 -97 51q-51 53 -51 130q0 94 73 153q54 45 128 45q92 0 150 -70q47 -56 47 -131q0 -79 -58 -192l-145 -283h-195zM631 911l147 297q-58 10 -97 51q-50 52 -50 130q0 94 73 153q55 45 127 45q92 0 150 -70q47 -56 47 -133q0 -79 -57 -190 l-146 -283h-194z" />
<glyph unicode="&#x201e;" horiz-adv-x="1128" vert-adv-y="1433" d="M100 169q0 93 72 152q55 46 129 46q92 0 150 -70q47 -56 47 -133q0 -78 -58 -191l-145 -282h-195l148 297q-57 8 -97 51q-51 54 -51 130zM631 168q0 94 72 153q55 46 128 46q92 0 150 -70q47 -56 47 -134q0 -80 -57 -190l-146 -282h-194l147 297q-56 7 -97 51 q-50 53 -50 129z" />
<glyph unicode="&#x2022;" horiz-adv-x="750" vert-adv-y="1433" d="M80 741q0 123 86 209t209 86q143 0 231 -110q64 -80 64 -187q0 -121 -86 -207t-210 -86q-109 0 -191 71q-103 87 -103 224z" />
<glyph unicode="&#x2026;" horiz-adv-x="2048" vert-adv-y="1433" d="M141 168q0 93 72 153q54 46 129 46q92 0 150 -70q47 -56 47 -132q0 -92 -72 -151q-54 -45 -127 -45q-74 0 -130 48q-69 59 -69 151zM825 168q0 93 72 153q54 46 129 46q92 0 150 -70q47 -56 47 -132q0 -92 -72 -151q-54 -45 -127 -45q-74 0 -130 48q-69 59 -69 151z M1509 168q0 93 72 153q54 46 129 46q92 0 150 -70q47 -56 47 -132q0 -92 -72 -151q-54 -45 -127 -45q-74 0 -130 48q-69 59 -69 151z" />
<glyph unicode="&#x2039;" horiz-adv-x="729" vert-adv-y="1433" d="M53 532l291 410h332l-287 -410l287 -409h-332z" />
<glyph unicode="&#x203a;" horiz-adv-x="729" vert-adv-y="1433" d="M53 123l287 409l-287 410h332l291 -410l-291 -409h-332z" />
<glyph unicode="&#x20ac;" horiz-adv-x="1389" vert-adv-y="1433" d="M117 446v140l157 39v7q-2 26 -2 69q0 53 2 83h-157v140l188 47q57 184 175 295q184 172 489 172q165 0 323 -41v-269q-160 46 -296 46q-202 0 -303 -112q-29 -32 -60 -91h434v-187h-481q-2 -25 -2 -55q0 -44 4 -96h479v-187h-436q36 -75 77 -114q100 -94 298 -94 q136 0 299 43v-269q-187 -41 -344 -41q-321 0 -503 191q-101 106 -153 284h-188z" />
<glyph unicode="&#x2122;" horiz-adv-x="1929" vert-adv-y="1433" d="M84 1270v174h653v-174h-223v-643h-207v643h-223zM827 627v817h269l172 -572l174 572h266v-817h-197v456l-139 -456h-207l-139 458v-458h-199z" />
<glyph unicode="&#xe000;" horiz-adv-x="1065" vert-adv-y="2129" d="M0 1065h1065v-1065h-1065v1065z" />
<glyph unicode="&#xeff5;" horiz-adv-x="1024" vert-adv-y="1433" d="M89 1612q12 107 59 169q72 93 203 93q79 0 223 -54q59 -22 84 -22q41 0 56 66h221q-31 -262 -262 -262q-72 0 -260 66q-29 10 -44 10q-28 0 -42 -21q-8 -15 -17 -45h-221z" />
<glyph unicode="&#xeff7;" horiz-adv-x="1024" vert-adv-y="1433" d="M51 1606l311 283h310l301 -283h-316l-145 141l-146 -141h-315z" />
<glyph unicode="&#xf6c9;" horiz-adv-x="1024" vert-adv-y="1433" d="M338 1606l289 283h403l-383 -283h-309z" />
<glyph unicode="&#xf6cb;" horiz-adv-x="1024" vert-adv-y="1433" d="M96 1742q0 77 60 128q45 37 108 37q77 0 126 -61q38 -46 38 -108q0 -77 -61 -126q-46 -37 -108 -37q-63 0 -113 45q-50 47 -50 122zM596 1742q0 77 60 128q44 37 108 37q77 0 126 -61q38 -46 38 -108q0 -78 -62 -127q-45 -36 -106 -36q-64 0 -114 45q-50 46 -50 122z" />
<glyph unicode="&#xf6ce;" horiz-adv-x="1024" vert-adv-y="1433" d="M26 1889h403l289 -283h-309z" />
<glyph unicode="&#xfb01;" horiz-adv-x="1346" vert-adv-y="1433" d="M871 1378q0 85 66 139q47 39 114 39q83 0 136 -66q40 -49 40 -115q0 -84 -66 -136q-48 -39 -112 -39q-66 0 -116 43q-62 53 -62 135zM893 0v1065h310v-1065h-310zM6 821v176l178 68v80q0 214 106 328q105 114 318 114q114 0 246 -20v-242q-115 10 -166 10 q-196 0 -196 -186v-84h247v-244h-245v-821h-310v821h-178z" />
<glyph unicode="&#xfb02;" horiz-adv-x="1327" vert-adv-y="1433" d="M885 0v1556h309v-1556h-309zM6 821v176l178 68v80q0 214 106 328q105 114 318 114q114 0 246 -20v-242q-115 10 -166 10q-196 0 -196 -186v-84h247v-244h-245v-821h-310v821h-178z" />
<glyph unicode="&#xfb03;" horiz-adv-x="2098" vert-adv-y="1433" d="M1623 1378q0 85 66 139q47 39 114 39q83 0 136 -66q40 -49 40 -115q0 -84 -66 -136q-48 -39 -112 -39q-66 0 -116 43q-62 53 -62 135zM1645 0v1065h310v-1065h-310zM758 821v176l178 68v80q0 214 106 328q105 114 318 114q114 0 246 -20v-242q-115 10 -166 10 q-196 0 -196 -186v-84h247v-244h-245v-821h-310v821h-178zM6 821v176l178 68v80q0 214 106 328q105 114 318 114q114 0 246 -20v-242q-115 10 -166 10q-196 0 -196 -186v-84h247v-244h-245v-821h-310v821h-178z" />
<glyph unicode="&#xfb04;" horiz-adv-x="2079" vert-adv-y="1433" d="M1637 0v1556h309v-1556h-309zM758 821v176l178 68v80q0 214 106 328q105 114 318 114q114 0 246 -20v-242q-115 10 -166 10q-196 0 -196 -186v-84h247v-244h-245v-821h-310v821h-178zM6 821v176l178 68v80q0 214 106 328q105 114 318 114q114 0 246 -20v-242 q-115 10 -166 10q-196 0 -196 -186v-84h247v-244h-245v-821h-310v821h-178z" />
</font>
</defs>
</svg>
